<?xml version="1.0" encoding="UTF-8"?>
<svg xmlns="http://www.w3.org/2000/svg" version="1.1" viewBox="0 0 520 720">
  <path d="M300 0C260 105 365 165 315 260C250 385 175 480 230 590C250 640 225 680 210 720" fill="none" stroke="#C9F7E3" stroke-width="3" stroke-linecap="round" stroke-linejoin="round"/>
  <path d="M480 0C520 100 425 185 470 290C520 405 390 480 450 590C480 650 440 690 430 720" fill="none" stroke="#C9F7E3" stroke-width="3" stroke-linecap="round" stroke-linejoin="round"/>
  <g transform="translate(330 95) rotate(10) scale(1.429) translate(-50 -50)">
    <path fill="#97F3C8" d="M50 88C28 70 8 56 8 35C8 22 19 13 32 13C41 13 47 18 50 27C53 18 59 13 68 13C81 13 92 22 92 35C92 56 72 70 50 88z"/>
  </g>
  <g transform="translate(455 155) scale(0.95) translate(-50 -50)">
    <circle cx="50" cy="50" r="50" fill="#97F3C8"/>
    <text x="50" y="50" dy="0.36em" fill="#FFFFFF" font-family="Arial, Helvetica, sans-serif" font-size="62" font-weight="bold" text-anchor="middle">Y</text>
  </g>
  <g transform="translate(255 330) rotate(-8) scale(1.307) translate(-50 -50)">
    <path fill="#97F3C8" d="M22 14H78L94 38L50 90L6 38L22 14z"/>
    <path d="M50 40V82M21 18L45 39M79 18L55 39M13 38H87" fill="none" stroke="#FFFFFF" stroke-width="4" stroke-linecap="round" stroke-linejoin="round"/>
  </g>
  <g transform="translate(465 560) rotate(12) scale(1.337) translate(-50 -50)">
    <path fill="#97F3C8" d="M50 8C53 8 55 10 56 13L63 34C64 36 66 37 68 37L90 37C94 37 96 42 92 45L74 58C72 60 72 62 73 64L80 85C82 89 78 93 74 90L53 77C51 76 49 76 47 77L26 90C22 93 18 89 20 85L27 64C28 62 28 60 26 58L8 45C4 42 6 37 10 37L32 37C34 37 36 36 37 34L44 13C45 10 47 8 50 8z"/>
  </g>
  <g transform="translate(185 600) scale(0.9) translate(-50 -50)">
    <circle cx="50" cy="50" r="50" fill="#97F3C8"/>
    <text x="50" y="50" dy="0.36em" fill="#FFFFFF" font-family="Arial, Helvetica, sans-serif" font-size="64" font-weight="bold" text-anchor="middle">A</text>
  </g>
</svg>
